<svg width="32" height="32" viewBox="0 0 32 32" fill="none" xmlns="http://www.w3.org/2000/svg">
<g clip-path="url(#clip0_202_3589)">
<path d="M0.146559 0.0799742C0.173225 0.139974 1.75989 2.51997 3.65323 5.37997L7.10656 10.6H19.5466H31.9999V5.29997V-2.57492e-05H16.0399C7.26656 -2.57492e-05 0.119892 0.0399742 0.146559 0.0799742Z" fill="#151515"/>
<path d="M3.60036 5.50005C4.81369 7.32005 5.82703 8.80005 5.86703 8.80005C5.90703 8.80005 4.94703 7.32005 3.73369 5.50005C2.52036 3.68005 1.50703 2.20005 1.46703 2.20005C1.42703 2.20005 2.38703 3.68005 3.60036 5.50005Z" fill="#401515"/>
<path d="M0 15.86C0 24.52 0.0266667 31.6 0.0533333 31.6C0.08 31.6 2.46667 28.1 5.34667 23.8L10.6 16.02L5.30667 8.05998L0 0.0999756V15.86Z" fill="#C11515"/>
<path d="M8.93379 13.3L10.7338 16L8.93379 18.7L7.13379 21.4H19.5738H32.0005V16V10.6H19.5738H7.13379L8.93379 13.3Z" fill="#156B40"/>
<path d="M3.59974 26.7L0.0664062 32H16.0397H31.9997V26.7V21.4H19.5597H7.13307L3.59974 26.7Z" fill="#D9D5D5"/>
</g>
<defs>
<clipPath id="clip0_202_3589">
<rect width="32" height="32" rx="16" fill="white"/>
</clipPath>
</defs>
</svg>
