<svg width="15" height="20" viewBox="0 0 15 20" fill="none" xmlns="http://www.w3.org/2000/svg">
<path d="M7.45359 19.6457C8.53432 19.6457 9.41855 18.7621 9.41855 17.6821H5.48862C5.48862 18.7621 6.36303 19.6457 7.45359 19.6457ZM13.3485 13.7547V8.84558C13.3485 5.83136 11.7372 3.30804 8.92731 2.6404V1.97275C8.92731 1.15783 8.26905 0.5 7.45359 0.5C6.63812 0.5 5.97986 1.15783 5.97986 1.97275V2.6404C3.16013 3.30804 1.55869 5.82154 1.55869 8.84558V13.7547L0.291284 15.0213C-0.32768 15.6399 0.104612 16.7002 0.979022 16.7002H13.9183C14.7927 16.7002 15.2349 15.6399 14.6159 15.0213L13.3485 13.7547Z" fill="white"/>
</svg>
