<svg width="13" height="13" viewBox="0 0 13 13" fill="none" xmlns="http://www.w3.org/2000/svg">
<path opacity="0.4" d="M6.50002 11.1667C7.7377 11.1667 8.92468 10.6751 9.79985 9.79991C10.675 8.92474 11.1667 7.73776 11.1667 6.50008C11.1667 5.2624 10.675 4.07542 9.79985 3.20025C8.92468 2.32508 7.7377 1.83341 6.50002 1.83341C5.26234 1.83341 4.07536 2.32508 3.20019 3.20025C2.32502 4.07542 1.83335 5.2624 1.83335 6.50008C1.83335 7.73776 2.32502 8.92474 3.20019 9.79991C4.07536 10.6751 5.26234 11.1667 6.50002 11.1667ZM6.50002 0.666748C7.26607 0.666748 8.02461 0.817632 8.73234 1.11078C9.44007 1.40394 10.0831 1.83362 10.6248 2.37529C11.1665 2.91697 11.5962 3.56003 11.8893 4.26776C12.1825 4.97549 12.3334 5.73404 12.3334 6.50008C12.3334 8.04718 11.7188 9.53091 10.6248 10.6249C9.53085 11.7188 8.04712 12.3334 6.50002 12.3334C3.27419 12.3334 0.666687 9.70842 0.666687 6.50008C0.666687 4.95299 1.28127 3.46925 2.37523 2.37529C3.46919 1.28133 4.95292 0.666748 6.50002 0.666748ZM6.79169 3.58342V6.64592L9.41669 8.20342L8.97919 8.92091L5.91669 7.08342V3.58342H6.79169Z" fill="black"/>
</svg>
