<svg width="20" height="16" viewBox="0 0 20 16" fill="none" xmlns="http://www.w3.org/2000/svg">
<path d="M2 16C1.45 16 0.979 15.804 0.587 15.412C0.195 15.02 -0.000666876 14.5493 -2.09555e-07 14V2C-2.09555e-07 1.45 0.196 0.979002 0.588 0.587002C0.98 0.195002 1.45067 -0.000664969 2 1.69779e-06H18C18.55 1.69779e-06 19.021 0.196001 19.413 0.588001C19.805 0.980001 20.0007 1.45067 20 2V14C20 14.55 19.804 15.021 19.412 15.413C19.02 15.805 18.5493 16.0007 18 16H2ZM10 9L18 4V2L10 7L2 2V4L10 9Z" fill="#0558B4"/>
</svg>
