<svg width="32" height="32" viewBox="0 0 32 32" fill="none" xmlns="http://www.w3.org/2000/svg">
<g clip-path="url(#clip0_202_3569)">
<path d="M16.002 0.941406C7.68535 0.941406 0.943359 7.68337 0.943359 16C0.943359 24.3167 7.68533 31.0587 16.002 31.0587C24.3186 31.0587 31.0607 24.3167 31.0607 16.0001C31.0606 7.6834 24.3187 0.941406 16.002 0.941406Z" fill="#EDF1F1"/>
<path d="M16.002 0.941406C7.68535 0.941406 0.943359 7.68337 0.943359 16C0.943359 24.3167 7.68533 31.0587 16.002 31.0587C24.3186 31.0587 31.0607 24.3167 31.0607 16.0001C31.0606 7.6834 24.3187 0.941406 16.002 0.941406Z" fill="#F2F2F2"/>
<path d="M28.0319 25.0567H3.97139C4.74847 26.0872 5.65655 27.0123 6.66817 27.8127H25.3351C26.3467 27.0123 27.2549 26.0872 28.0319 25.0567ZM31.0541 15.7551C31.039 14.8131 30.9409 13.8914 30.7604 12.999H1.2429C1.06241 13.8914 0.964306 14.8131 0.949219 15.7551H31.0541ZM29.6906 9.7263C29.241 8.74712 28.6928 7.82278 28.053 6.97022H3.95034C3.31054 7.82278 2.76226 8.74712 2.31276 9.7263H29.6906ZM24.6803 3.69748C22.2268 1.96353 19.2345 0.941406 16.0017 0.941406C12.7688 0.941406 9.77649 1.96353 7.32305 3.69748H24.6803ZM29.9075 21.7839C30.2739 20.9041 30.5607 19.9828 30.7556 19.0278H1.2477C1.44262 19.9828 1.7294 20.9041 2.09578 21.7839H29.9075Z" fill="#F73E54"/>
<path d="M15.9983 0.945435V15.7596H0.939453C0.939453 15.0725 0.986559 14.4137 1.08065 13.7549V13.7455C1.19359 12.8702 1.39126 12.0231 1.66418 11.2043V11.1949C1.86184 10.5454 2.11592 9.92429 2.40769 9.33135C2.42653 9.27487 2.45479 9.2184 2.49242 9.16194C3.20773 7.72191 4.1489 6.41367 5.27832 5.28431C5.84301 4.71956 6.46416 4.19251 7.11357 3.73135C7.38655 3.52431 7.67831 3.33606 7.97008 3.15724C8.74185 2.67723 9.56067 2.26311 10.4171 1.94308C11.2548 1.61369 12.1301 1.35955 13.043 1.19957C13.9183 1.03017 14.8218 0.945435 15.7536 0.945435H15.9983Z" fill="#317DEA"/>
<path d="M12.3271 9.96899L13.0669 11.4655L14.7186 11.7064L13.5233 12.8716L13.8057 14.5168L12.3271 13.7403L10.8495 14.5168L11.1318 12.8716L9.93652 11.7064L11.5883 11.4655L12.3271 9.96899Z" fill="#EDF1F1"/>
<path d="M12.3271 4.85266L13.0669 6.35007L14.7186 6.59007L13.5233 7.75619L13.8057 9.40137L12.3271 8.6249L10.8495 9.40137L11.1318 7.75619L9.93652 6.59007L11.5883 6.35007L12.3271 4.85266Z" fill="#EDF1F1"/>
<path d="M13.5238 2.63961L13.8062 4.28667L12.3286 3.50548L10.8509 4.28667L11.1333 2.63961L10.418 1.9431C11.2556 1.6137 12.1309 1.35957 13.0439 1.19958L13.0627 1.23721L14.7192 1.47251L13.5238 2.63961Z" fill="#EDF1F1"/>
<path d="M6.69231 9.96887L7.43113 11.4653L9.08384 11.7063L7.88761 12.8715L8.16996 14.5166L6.69231 13.7402L5.21466 14.5166L5.49702 12.8715L4.30078 11.7063L5.95349 11.4653L6.69231 9.96887Z" fill="#EDF1F1"/>
<path d="M6.69231 4.85266L7.43113 6.35007L9.08384 6.59007L7.88761 7.75619L8.16996 9.40137L6.69231 8.6249L5.21466 9.40137L5.49702 7.75619L4.30078 6.59007L5.95349 6.35007L6.69231 4.85266Z" fill="#EDF1F1"/>
<path d="M8.16838 4.28665L7.11426 3.73133C7.38724 3.52429 7.679 3.33605 7.97077 3.15723L8.16838 4.28665Z" fill="#EDF1F1"/>
<path d="M2.2481 12.8702L2.53045 14.5173L1.08105 13.7549V13.7455C1.194 12.8702 1.39166 12.0231 1.66458 11.2043L1.79636 11.4678L3.44342 11.7031L2.2481 12.8702ZM2.53045 9.39728L2.40809 9.33139C2.42694 9.27492 2.4552 9.21845 2.49283 9.16199L2.53045 9.39728Z" fill="#EDF1F1"/>
</g>
<defs>
<clipPath id="clip0_202_3569">
<rect width="32" height="32" fill="white"/>
</clipPath>
</defs>
</svg>
