<svg width="12" height="8" viewBox="0 0 12 8" fill="none" xmlns="http://www.w3.org/2000/svg">
<path d="M5.67102 0.25C3.17102 0.25 1.03602 1.805 0.171021 4C1.03602 6.195 3.17102 7.75 5.67102 7.75C8.17102 7.75 10.306 6.195 11.171 4C10.306 1.805 8.17102 0.25 5.67102 0.25ZM5.67102 6.5C4.29102 6.5 3.17102 5.38 3.17102 4C3.17102 2.62 4.29102 1.5 5.67102 1.5C7.05102 1.5 8.17102 2.62 8.17102 4C8.17102 5.38 7.05102 6.5 5.67102 6.5ZM5.67102 2.5C4.84102 2.5 4.17102 3.17 4.17102 4C4.17102 4.83 4.84102 5.5 5.67102 5.5C6.50102 5.5 7.17102 4.83 7.17102 4C7.17102 3.17 6.50102 2.5 5.67102 2.5Z" fill="#111111"/>
</svg>
