<svg width="25" height="24" viewBox="0 0 25 24" fill="none" xmlns="http://www.w3.org/2000/svg">
<path fill-rule="evenodd" clip-rule="evenodd" d="M6.82951 11.8237L2.33407 15.8259C1.42711 16.6333 0.892975 17.7796 0.857469 18.9937C0.821962 20.2071 1.29126 21.385 2.15036 22.2433C3.00869 23.1024 4.1835 23.5694 5.39767 23.5339C6.61183 23.4984 7.75808 22.9643 8.56547 22.0573L12.421 17.7263L6.82951 11.8237ZM23.1471 22.6478C23.7175 22.0774 24.0347 21.2986 24.0239 20.4919C24.0131 19.6846 23.6758 18.9158 23.09 18.3608L10.3431 6.2847C10.4288 5.92732 10.4736 5.5545 10.4736 5.17088C10.4736 2.51947 8.32155 0.367462 5.67091 0.367462C4.61575 0.367462 3.63933 0.708634 2.8466 1.286C2.63511 1.43961 2.51624 1.68969 2.53013 1.95059C2.54402 2.21149 2.68838 2.44768 2.91454 2.57813L5.59836 4.12807C5.60608 4.1327 5.61225 4.13965 5.61457 4.14891C5.61688 4.1574 5.61534 4.16666 5.61071 4.17438L4.80488 5.57149C4.80025 5.5792 4.79252 5.58461 4.78403 5.58692C4.77477 5.58924 4.76551 5.58847 4.75779 5.58384L2.05388 4.02232C1.82849 3.89264 1.5537 3.88492 1.32213 4.00071C1.0898 4.11726 0.931575 4.34188 0.901471 4.59969C0.879087 4.78725 0.867504 4.97791 0.867504 5.17088C0.867504 7.82152 3.0195 9.97352 5.67091 9.97352C6.05454 9.97352 6.42736 9.92875 6.78551 9.84307C6.78474 9.84307 18.8608 22.5899 18.8608 22.5899C19.4158 23.1758 20.1846 23.5131 20.992 23.5239C21.7986 23.5347 22.5759 23.219 23.1471 22.6478ZM5.27263 20.2102L6.81639 18.6665C7.11743 18.3654 7.11743 17.876 6.81639 17.575C6.51536 17.274 6.02599 17.274 5.72495 17.575L4.18119 19.1188C3.88016 19.4198 3.88016 19.9092 4.18119 20.2102C4.48222 20.5112 4.9716 20.5112 5.27263 20.2102ZM13.5889 7.52743L16.952 10.7138L18.6594 9.00636H20.5227C20.8036 9.00636 21.0615 8.8543 21.1981 8.60961L23.9267 3.69736C24.0942 3.39632 24.0417 3.02042 23.7978 2.7765L21.6149 0.593623C21.371 0.349709 20.9951 0.297221 20.694 0.464719L15.7818 3.19332C15.5371 3.32994 15.3851 3.58775 15.3851 3.86872V5.73204L13.5889 7.52743Z" fill="#0558B4"/>
</svg>
