<svg width="36" height="36" viewBox="0 0 36 36" fill="none" xmlns="http://www.w3.org/2000/svg">
<path d="M15.6364 0.317444C8.17369 1.33374 2.17233 6.85292 0.584822 14.1821C0.072963 16.5189 0.072963 19.501 0.584822 21.8155C2.02396 28.3658 7.09063 33.618 13.5519 35.25C14.3086 35.4428 15.77 35.6951 16.4525 35.7544L16.8605 35.7915V30.9771V26.1626L16.4525 26.0884C14.8353 25.7695 13.322 24.9609 12.1499 23.7888C10.7998 22.4387 9.99116 20.7473 9.76861 18.7889C9.61283 17.461 9.85021 15.9774 10.4363 14.6569C11.5193 12.2089 13.8264 10.384 16.4821 9.87957C17.2685 9.7312 18.6928 9.7312 19.4791 9.87957C20.5251 10.0799 21.7788 10.5991 22.5577 11.1481C22.7505 11.289 22.9286 11.4003 22.9657 11.4003C23.0473 11.4003 29.7311 4.69421 29.7311 4.61261C29.7237 4.49392 28.3884 3.4702 27.5205 2.92125C25.2579 1.48953 22.617 0.562248 19.9984 0.280354C19.0043 0.169079 16.5786 0.191334 15.6364 0.317444Z" fill="#111111"/>
<path d="M27.9507 9.65684C24.9686 12.639 24.5903 13.047 24.6644 13.1583C25.295 14.0633 25.7846 15.1389 26.022 16.1849L26.1778 16.8525H30.9922H35.7992L35.7696 16.4816C35.4283 13.0173 34.234 9.89422 32.2533 7.29042C31.6079 6.44474 31.467 6.28154 31.3854 6.28154C31.3557 6.28154 29.8053 7.80228 27.9507 9.65684Z" fill="#111111"/>
<path d="M26.0517 19.7087C25.7179 21.2221 25.0651 22.4683 24.0117 23.5959C22.8396 24.857 21.4005 25.673 19.7165 26.0439L19.1602 26.17V30.9845V35.7915L19.5311 35.7618C21.8159 35.5393 23.893 34.9532 25.8588 33.9889C29.427 32.2382 32.2459 29.4192 33.9967 25.8511C34.961 23.8852 35.5471 21.8081 35.7696 19.5233L35.7993 19.1524H30.9923H26.1778L26.0517 19.7087Z" fill="#111111"/>
</svg>
